<svg width="150" height="59" viewBox="0 0 150 59" fill="none" xmlns="http://www.w3.org/2000/svg">
<path d="M53.0661 35.746C53.0661 35.746 49.5551 43.2456 40.5943 43.2456C35.1864 43.2456 33.1427 39.3857 31.099 35.5153C54.439 29.0856 66.3763 0 36.8214 0C2.57116 0 -8.73727 31.2568 6.92056 31.2568C14.8648 31.2568 17.5687 27.0822 17.5687 27.0822C9.00617 27.0822 19.9688 10.8769 35.2702 6.16745C34.4318 9.80708 27.2841 17.7996 21.1216 27.8374C12.2446 28.0997 9.76077 34.4979 16.5521 36.2705C16.1434 37.1201 15.7451 37.9592 15.4412 38.8088C11.4481 48.49 10.7355 58.6957 20.0945 58.6957C25.0623 58.6957 27.6824 54.8358 27.6824 54.8358C23.7312 49.0669 23.7312 42.8889 25.5129 36.9837C27.2841 43.6861 28.5313 53.4093 35.941 53.4093C49.335 53.4093 54.743 35.746 54.743 35.746H53.0661ZM43.3926 4.87732C53.7683 4.87732 43.3402 26.9459 28.8772 31.7498C28.6151 31.3407 28.3531 30.9946 28.0387 30.6799C31.6335 23.3062 36.8633 16.7822 38.9489 12.5657C40.3323 9.76513 39.2633 6.83874 38.5087 5.3703C40.1017 5.05563 41.7472 4.87732 43.3926 4.87732ZM19.2142 31.0785C18.8997 31.6554 18.5434 32.2742 18.229 32.8511C17.2124 32.3686 17.6526 31.4771 19.2142 31.0785ZM70.5894 35.746C70.5894 35.746 65.3911 40.7177 61.3561 40.7177C58.9666 40.7177 58.736 38.1794 59.4906 35.3475C59.9832 35.6097 60.7378 35.8299 61.8068 35.8299C71.3021 35.8299 74.6244 24.3761 66.8584 24.3761C54.0827 24.3761 46.2328 47.1999 56.2522 47.1999C66.1038 47.1999 72.2768 35.746 72.2768 35.746H70.5894ZM64.4164 27.7955C65.8837 27.7955 65.4435 33.5643 61.4924 33.5643C60.9579 33.5643 60.5596 33.3441 60.2452 33.0819C61.3981 30.2813 63.1798 27.7955 64.4164 27.7955ZM78.3555 40.8961C75.8192 40.8961 75.7354 37.8333 76.9301 33.7427C90.7748 24.8166 95.9627 7.99251 90.2823 7.99251C80.1267 7.99251 60.6435 47.1999 74.8026 47.1999C82.5686 47.1999 86.8237 35.746 86.8237 35.746H85.1887C85.1887 35.746 82.5686 40.8961 78.3555 40.8961ZM89.0875 12.0307C91.1731 12.0307 85.6709 22.8238 78.4812 29.2639C81.7721 21.219 87.4945 12.0307 89.0875 12.0307ZM91.215 39.6898C88.7311 39.6898 95.0299 28.9912 95.6587 27.7955C96.2352 26.5997 91.9696 24.5544 90.7748 25.7921C88.0709 28.5926 78.0411 47.1999 86.2892 47.1999C92.284 47.1999 96.8535 35.746 96.8535 35.746H95.2081C95.2081 35.746 92.9967 39.6898 91.215 39.6898ZM100.354 13.6775C96.319 13.6775 91.6657 23.6629 95.3443 23.6629C99.4212 23.6629 102.974 13.6775 100.354 13.6775ZM112.606 23.7992C111.809 24.6383 110.206 26.9459 108.613 29.8408C108.393 30.2394 108.162 30.596 107.984 30.9946C106.527 33.5643 102.838 39.6898 100.585 39.6898C97.7444 39.6898 104.347 32.6728 105.374 27.6172C105.909 25.0369 104.305 23.4426 102.261 23.4426C100.668 23.4426 99.5575 24.3342 99.5575 24.3342C99.5575 24.3342 100.134 24.9949 99.4736 27.3025C97.9225 32.9035 85.9853 47.1999 94.5059 47.1999C97.692 47.1999 101.067 44.3574 103.907 40.938C103.068 44.5357 103.592 47.1999 106.789 47.1999C112.784 47.1999 117.353 35.746 117.353 35.746H115.666C115.666 35.746 113.486 39.6898 111.715 39.6898C108.917 39.6898 116.861 26.9983 117.479 25.7921C118.056 24.5964 113.8 22.551 112.606 23.7992ZM148.323 35.746C148.323 35.746 146.143 39.6898 144.372 39.6898C141.888 39.6898 143.523 32.9035 148.941 28.0157C148.941 28.0157 149.654 23.9356 145.21 23.9356C141.354 23.9356 137.979 26.0124 135.275 28.8548C135.851 27.7955 136.522 26.7676 137.182 25.7082C137.224 25.6138 137.266 25.5718 137.266 25.5718C137.182 25.4355 137.14 25.3516 137.046 25.2677C136.522 24.5125 135.589 23.9356 133.902 23.9356C130.527 23.9356 127.687 25.5299 125.381 27.8374C127.027 23.8412 127.289 20.9567 123.516 20.9567C120.634 20.9567 119.565 22.8238 119.565 22.8238C123.558 26.6417 105.416 47.6824 114.733 47.6824C116.2 47.6824 117.794 47.1999 117.794 47.1999C119.083 42.5848 124.585 29.3059 132.477 27.0403C126.042 32.7672 121.566 42.1757 126.891 43.8224H126.932C127.425 43.9588 128.043 44.0427 128.704 44.0427C130.967 38.2319 137.046 28.8129 143.837 26.9983C136.69 33.4804 131.418 47.1999 139.446 47.1999C145.431 47.1999 150 35.746 150 35.746H148.323Z" fill="#136D73"/>
</svg>
