<svg width="253" height="99" viewBox="0 0 253 99" fill="none" xmlns="http://www.w3.org/2000/svg">
<path d="M89.5048 60.2915C89.5048 60.2915 83.5829 72.9409 68.4691 72.9409C59.3477 72.9409 55.9007 66.4305 52.4537 59.9024C91.8205 49.0577 111.955 0 62.1054 0C4.33669 0 -14.7369 52.7198 11.6727 52.7198C25.072 52.7198 29.6325 45.6786 29.6325 45.6786C15.1904 45.6786 33.6807 18.3457 59.4891 10.4024C58.075 16.5413 46.0192 30.022 35.6251 46.9524C20.6526 47.3948 16.4632 58.1864 27.9179 61.1762C27.2285 62.6092 26.5567 64.0245 26.0442 65.4575C19.3091 81.7864 18.1072 99 33.8927 99C42.2718 99 46.691 92.4896 46.691 92.4896C40.0266 82.7594 40.0266 72.3392 43.0318 62.3791C46.0192 73.6838 48.1228 90.0836 60.6205 90.0836C83.2117 90.0836 92.3332 60.2915 92.3332 60.2915H89.5048ZM73.1889 8.22641C90.6892 8.22641 73.1005 45.4487 48.7062 53.5513C48.2641 52.8613 47.8222 52.2775 47.2919 51.7467C53.3552 39.3098 62.1761 28.306 65.6938 21.1941C68.0272 16.4705 66.2241 11.5347 64.9513 9.0579C67.6382 8.52716 70.4136 8.22641 73.1889 8.22641ZM32.408 52.419C31.8775 53.3921 31.2765 54.4358 30.7463 55.4088C29.0316 54.595 29.7741 53.0913 32.408 52.419ZM119.061 60.2915C119.061 60.2915 110.293 68.6771 103.487 68.6771C99.457 68.6771 99.0681 64.3959 100.341 59.6194C101.172 60.0616 102.444 60.433 104.247 60.433C120.263 60.433 125.866 41.1143 112.768 41.1143C91.2195 41.1143 77.9793 79.6104 94.8787 79.6104C111.495 79.6104 121.907 60.2915 121.907 60.2915H119.061ZM108.649 46.8817C111.124 46.8817 110.381 56.6117 103.717 56.6117C102.816 56.6117 102.144 56.2403 101.614 55.7981C103.558 51.0744 106.563 46.8817 108.649 46.8817ZM132.16 68.978C127.882 68.978 127.74 63.8121 129.755 56.9126C153.107 41.8573 161.857 13.4807 152.276 13.4807C135.147 13.4807 102.285 79.6104 126.167 79.6104C139.266 79.6104 146.443 60.2915 146.443 60.2915H143.685C143.685 60.2915 139.266 68.978 132.16 68.978ZM150.261 20.2918C153.779 20.2918 144.498 38.4961 132.372 49.3584C137.922 35.7894 147.574 20.2918 150.261 20.2918ZM153.849 66.9434C149.66 66.9434 160.284 48.8985 161.344 46.8817C162.317 44.8648 155.122 41.4151 153.107 43.5026C148.546 48.2261 131.629 79.6104 145.541 79.6104C155.652 79.6104 163.36 60.2915 163.36 60.2915H160.584C160.584 60.2915 156.854 66.9434 153.849 66.9434ZM169.264 23.0694C162.458 23.0694 154.609 39.9114 160.814 39.9114C167.69 39.9114 173.683 23.0694 169.264 23.0694ZM189.929 40.1413C188.585 41.5566 185.881 45.4487 183.194 50.3314C182.823 51.0037 182.433 51.6052 182.133 52.2775C179.676 56.6117 173.453 66.9434 169.653 66.9434C164.862 66.9434 175.999 55.1081 177.731 46.581C178.633 42.2289 175.928 39.5398 172.48 39.5398C169.793 39.5398 167.92 41.0437 167.92 41.0437C167.92 41.0437 168.893 42.158 167.779 46.0502C165.163 55.4972 145.029 79.6104 159.4 79.6104C164.774 79.6104 170.466 74.8161 175.256 69.0487C173.841 75.1168 174.725 79.6104 180.117 79.6104C190.229 79.6104 197.935 60.2915 197.935 60.2915H195.09C195.09 60.2915 191.413 66.9434 188.426 66.9434C183.707 66.9434 197.106 45.5371 198.148 43.5026C199.121 41.4859 191.943 38.036 189.929 40.1413ZM250.171 60.2915C250.171 60.2915 246.495 66.9434 243.507 66.9434C239.318 66.9434 242.075 55.4972 251.214 47.2531C251.214 47.2531 252.416 40.3713 244.921 40.3713C238.417 40.3713 232.725 43.8742 228.164 48.6684C229.135 46.8817 230.267 45.148 231.38 43.3611C231.451 43.2019 231.522 43.1311 231.522 43.1311C231.38 42.9012 231.309 42.7597 231.151 42.6182C230.267 41.3444 228.693 40.3713 225.848 40.3713C220.156 40.3713 215.365 43.0604 211.476 46.9524C214.252 40.2121 214.694 35.3469 208.33 35.3469C203.469 35.3469 201.666 38.4961 201.666 38.4961C208.401 44.9356 177.802 80.4242 193.516 80.4242C195.991 80.4242 198.679 79.6104 198.679 79.6104C200.853 71.8263 210.133 49.4292 223.445 45.6079C212.591 55.2673 205.041 71.1363 214.023 73.9137H214.092C214.924 74.1438 215.966 74.2853 217.081 74.2853C220.898 64.4844 231.151 48.5977 242.605 45.5371C230.55 56.4702 221.658 79.6104 235.199 79.6104C245.294 79.6104 253 60.2915 253 60.2915H250.171Z" fill="#F5F3E8"/>
</svg>
