<svg width="3788" height="400" viewBox="0 0 3788 400" fill="none" xmlns="http://www.w3.org/2000/svg">
<path fill-rule="evenodd" clip-rule="evenodd" d="M3351.18 169.942H3614.12L3782.84 338.662H3642.45L3575.51 271.719H3452.96L3372.8 191.557V338.662H3271.02V169.942H3351.18ZM2806.41 103.21L2717.44 14.0236H3229.26V115.801H2828.03V125.454H3229.26V227.231H2908.19L2828.03 146.859V162.597L3026.33 360.906H2885.94L2726.25 201.21V103.21H2806.41ZM1172.31 169.942H1435.25L1603.97 338.662H1463.58L1396.64 271.719H1274.09L1193.71 191.557V338.662H1092.15V169.942H1172.31ZM627.538 103.21L538.352 14.0236H1050.18V115.801H649.152V125.454H1050.18V227.231H729.315L649.152 146.859V162.597L847.461 360.906H707.071L547.375 201.21V103.21H627.538ZM2.60425 338.662V161.128L104.382 262.906V338.662H2.60425ZM254.005 256.61L505.615 5V338.662H403.838V247.167L254.005 397L2.60425 145.39V5L254.005 256.61ZM840.746 338.662L738.968 236.884H1050.18V338.662H840.746ZM1184.9 58.5118L1229.39 14.0236H1502.19L1597.67 109.505L1546.68 160.289H1406.29L1446.16 120.627L1441.34 115.801H1268.21L1223.51 160.289H1092.15V58.5118H1184.9ZM1729.67 338.662L1636.71 245.698V14.0236H2139.72V338.662H1729.67ZM2352.72 232.058L2357.54 236.884H2582.71V227.231H2440.01L2541.79 125.454H2684.49V338.662H2296.69L2201.2 243.18L2318.93 125.454H2459.32L2352.72 232.058ZM2313.05 115.801L2249.05 179.595L2178.96 109.505L2274.44 14.0236H2684.49V115.801H2313.05ZM3019.62 338.662L2917.84 236.884H3229.26V338.662H3019.62ZM3363.77 58.5118L3408.47 14.0236H3681.07L3776.55 109.505L3725.55 160.289H3585.38L3625.04 120.627L3620.21 115.801H3447.08L3402.6 160.289H3271.02V58.5118H3363.77ZM2037.94 236.884V115.801H1738.48V207.086L1768.28 236.884H2037.94Z" stroke="#E3DA9B" stroke-width="4"/>
<path d="M8.89966 332.364V176.236L98.0859 265.422V332.364H8.89966ZM254.005 387.975L8.89966 142.87V20.3174L254.005 265.422L499.319 20.3174V332.364H410.133V232.056L254.005 387.975ZM843.473 332.364L754.287 243.178H1043.88V332.364H843.473ZM731.833 220.934L642.857 131.748H1043.88V220.934H731.833ZM709.589 354.609L553.67 198.48V109.504H642.857V165.114L832.351 354.609H709.589ZM642.857 109.504L553.67 20.3174H1043.88V109.504H642.857ZM1098.44 332.364V176.236H1187.42V332.364H1098.44ZM1466.1 332.364L1399.37 265.422H1276.6L1187.42 176.236H1432.73L1588.65 332.364H1466.1ZM1098.44 153.992V64.8056H1187.42L1232.12 20.3174H1499.46L1588.65 109.504L1544.16 153.992H1421.61L1454.98 120.626L1443.85 109.504H1265.48L1220.99 153.992H1098.44ZM2044.24 243.178V109.504H1732.19V209.602L1765.76 243.178H2044.24ZM1732.19 332.364L1643 243.178V20.3174H2133.42V332.364H1732.19ZM2299.2 332.364L2210.02 243.178L2321.45 131.748H2444.21L2343.9 232.056L2355.02 243.178H2589.01V220.934H2455.33L2544.52 131.748H2678.19V332.364H2299.2ZM2249.05 170.78L2187.77 109.504L2276.96 20.3174H2678.19V109.504H2310.33L2249.05 170.78ZM3022.35 332.364L2933.16 243.178H3222.96V332.364H3022.35ZM2910.92 220.934L2821.73 131.748H3222.96V220.934H2910.92ZM2888.46 354.609L2732.54 198.48V109.504H2821.73V165.114L3011.22 354.609H2888.46ZM2821.73 109.504L2732.54 20.3174H3222.96V109.504H2821.73ZM3277.31 332.364V176.236H3366.5V332.364H3277.31ZM3644.97 332.364L3578.24 265.422H3455.48L3366.5 176.236H3611.61L3767.52 332.364H3644.97ZM3277.31 153.992V64.8056H3366.5L3410.99 20.3174H3678.55L3767.52 109.504L3723.04 153.992H3600.48L3633.85 120.626L3622.73 109.504H3444.57L3399.87 153.992H3277.31Z" stroke="#E3DA9B" stroke-width="4"/>
</svg>
