<?xml version="1.0" encoding="UTF-8"?>
<!DOCTYPE svg PUBLIC "-//W3C//DTD SVG 1.1//EN" "http://www.w3.org/Graphics/SVG/1.1/DTD/svg11.dtd">
<!-- Creator: CorelDRAW X8 -->
<svg xmlns="http://www.w3.org/2000/svg" xml:space="preserve" width="210mm" height="297mm" version="1.1" style="shape-rendering:geometricPrecision; text-rendering:geometricPrecision; image-rendering:optimizeQuality; fill-rule:evenodd; clip-rule:evenodd"
viewBox="0 0 21000 29700"
 xmlns:xlink="http://www.w3.org/1999/xlink">
 <defs>
  <style type="text/css">
   <![CDATA[
    .fil0 {fill:#DFD69C}
    .fil1 {fill:#FEFEFE;fill-rule:nonzero}
   ]]>
  </style>
 </defs>
 <g id="Camada_x0020_1">
  <metadata id="CorelCorpID_0Corel-Layer"/>
  <g id="_2525873746864">
   <path class="fil0" d="M18964 17614l1253 0 804 804 -669 0 -319 -319 -584 0 -382 -382 0 701 -485 0 0 -804 382 0zm-2596 -318l-424 -425 2439 0 0 485 -1912 0 0 46 1912 0 0 485 -1530 0 -382 -383 0 75 945 945 -669 0 -761 -761 0 -467 382 0zm-7787 318l1253 0 804 804 -669 0 -319 -319 -584 0 -383 -382 0 701 -484 0 0 -804 382 0zm-2596 -318l-425 -425 2439 0 0 485 -1911 0 0 46 1911 0 0 485 -1529 0 -382 -383 0 75 945 945 -669 0 -761 -761 0 -467 382 0zm-2978 1122l0 -846 485 485 0 361 -485 0zm1198 -391l1199 -1199 0 1590 -485 0 0 -436 -714 714 -1198 -1199 0 -669 1198 1199zm2796 391l-485 -485 1483 0 0 485 -998 0zm1640 -1335l212 -212 1300 0 455 455 -243 242 -669 0 190 -189 -23 -23 -825 0 -213 212 -626 0 0 -485 442 0zm2596 1335l-443 -443 0 -1104 2397 0 0 1547 -1954 0zm2969 -508l23 23 1073 0 0 -46 -680 0 485 -485 680 0 0 1016 -1848 0 -455 -455 561 -561 669 0 -508 508zm-189 -554l-305 304 -334 -334 455 -455 1954 0 0 485 -1770 0zm3367 1062l-485 -485 1484 0 0 485 -999 0zm1640 -1335l213 -212 1299 0 455 455 -243 242 -668 0 189 -189 -23 -23 -825 0 -212 212 -627 0 0 -485 442 0zm-6318 850l0 -577 -1427 0 0 435 142 142 1285 0z"/>
  </g>
  <path class="fil1" d="M3037 18388l0 -744 425 425 0 319 -425 0zm1168 265l-1168 -1168 0 -584 1168 1168 1169 -1168 0 1487 -425 0 0 -478 -744 743zm2809 -265l-425 -425 1380 0 0 425 -955 0zm-532 -531l-424 -425 1911 0 0 425 -1487 0zm-106 637l-743 -744 0 -424 425 0 0 265 903 903 -585 0zm-318 -1168l-425 -425 2336 0 0 425 -1911 0zm2171 1062l0 -744 424 0 0 744 -424 0zm1752 0l-318 -319 -585 0 -425 -425 1169 0 743 744 -584 0zm-1752 -850l0 -425 424 0 213 -212 1274 0 425 425 -212 212 -584 0 159 -159 -53 -53 -850 0 -212 212 -584 0zm4507 425l0 -637 -1487 0 0 477 160 160 1327 0zm-1487 425l-425 -425 0 -1062 2337 0 0 1487 -1912 0zm2702 0l-425 -425 531 -531 585 0 -478 478 53 53 1115 0 0 -106 -637 0 425 -425 637 0 0 956 -1806 0zm-239 -770l-292 -292 425 -425 1912 0 0 425 -1753 0 -292 292zm3685 770l-425 -425 1381 0 0 425 -956 0zm-531 -531l-425 -425 1912 0 0 425 -1487 0zm-107 637l-743 -744 0 -424 425 0 0 265 903 903 -585 0zm-318 -1168l-425 -425 2337 0 0 425 -1912 0zm2171 1062l0 -744 425 0 0 744 -425 0zm1752 0l-318 -319 -585 0 -424 -425 1168 0 743 744 -584 0zm-1752 -850l0 -425 425 0 212 -212 1275 0 424 425 -212 212 -584 0 159 -159 -53 -53 -849 0 -213 212 -584 0z"/>
 </g>
</svg>
